<?xml version="1.0" encoding="UTF-8" standalone="no"?>
<!-- Created with Inkscape (http://www.inkscape.org/) -->
<svg
   xmlns:dc="http://purl.org/dc/elements/1.1/"
   xmlns:cc="http://web.resource.org/cc/"
   xmlns:rdf="http://www.w3.org/1999/02/22-rdf-syntax-ns#"
   xmlns:svg="http://www.w3.org/2000/svg"
   xmlns="http://www.w3.org/2000/svg"
   xmlns:sodipodi="http://inkscape.sourceforge.net/DTD/sodipodi-0.dtd"
   xmlns:inkscape="http://www.inkscape.org/namespaces/inkscape"
   version="1.0"
   width="900pt"
   height="600pt"
   id="svg2"
   sodipodi:version="0.32"
   inkscape:version="0.43"
   sodipodi:docname="anycast.svg"
   sodipodi:docbase="/home/cyberix/Desktop">
  <metadata
     id="metadata28">
    <rdf:RDF>
      <cc:Work
         rdf:about="">
        <dc:format>image/svg+xml</dc:format>
        <dc:type
           rdf:resource="http://purl.org/dc/dcmitype/StillImage" />
      </cc:Work>
    </rdf:RDF>
  </metadata>
  <sodipodi:namedview
     inkscape:window-height="555"
     inkscape:window-width="822"
     inkscape:pageshadow="2"
     inkscape:pageopacity="0.0"
     borderopacity="1.0"
     bordercolor="#666666"
     pagecolor="#ffffff"
     id="base"
     inkscape:zoom="0.50133333"
     inkscape:cx="562.5"
     inkscape:cy="375"
     inkscape:window-x="140"
     inkscape:window-y="63"
     inkscape:current-layer="svg2" />
  <defs
     id="defs4">
    <marker
       refX="0"
       refY="0"
       orient="auto"
       style="overflow:visible"
       id="Arrow2Lend">
      <path
         d="M 8.7185878,4.0337352 L -2.2072895,0.016013256 L 8.7185884,-4.0017078 C 6.97309,-1.6296469 6.9831476,1.6157441 8.7185878,4.0337352 z "
         transform="matrix(-1.1,0,0,-1.1,5.5,0)"
         style="font-size:12px;fill-rule:evenodd;stroke-width:0.625;stroke-linejoin:round"
         id="path3334" />
    </marker>
    <marker
       refX="0"
       refY="0"
       orient="auto"
       style="overflow:visible"
       id="Arrow1Mstart">
      <path
         d="M 0,0 L 5,-5 L -12.5,0 L 5,5 L 0,0 z "
         transform="scale(0.4,0.4)"
         style="fill-rule:evenodd;stroke:#000000;stroke-width:1pt;marker-start:none"
         id="path3349" />
    </marker>
    <marker
       refX="0"
       refY="0"
       orient="auto"
       style="overflow:visible"
       id="Arrow1Lstart">
      <path
         d="M 0,0 L 5,-5 L -12.5,0 L 5,5 L 0,0 z "
         transform="scale(0.8,0.8)"
         style="fill-rule:evenodd;stroke:#000000;stroke-width:1pt;marker-start:none"
         id="path3355" />
    </marker>
    <marker
       refX="0"
       refY="0"
       orient="auto"
       style="overflow:visible"
       id="Arrow2Mend">
      <path
         d="M 8.7185878,4.0337352 L -2.2072895,0.016013256 L 8.7185884,-4.0017078 C 6.97309,-1.6296469 6.9831476,1.6157441 8.7185878,4.0337352 z "
         transform="matrix(-0.6,0,0,-0.6,3,0)"
         style="font-size:12px;fill-rule:evenodd;stroke-width:0.625;stroke-linejoin:round"
         id="path3328" />
    </marker>
    <marker
       refX="0"
       refY="0"
       orient="auto"
       style="overflow:visible"
       id="Arrow1Mend">
      <path
         d="M 0,0 L 5,-5 L -12.5,0 L 5,5 L 0,0 z "
         transform="scale(-0.4,-0.4)"
         style="fill-rule:evenodd;stroke:#000000;stroke-width:1pt;marker-start:none"
         id="path3346" />
    </marker>
    <marker
       refX="0"
       refY="0"
       orient="auto"
       style="overflow:visible"
       id="Arrow1Lend">
      <path
         d="M 0,0 L 5,-5 L -12.5,0 L 5,5 L 0,0 z "
         transform="scale(-0.8,-0.8)"
         style="fill-rule:evenodd;stroke:#000000;stroke-width:1pt;marker-start:none"
         id="path3352" />
    </marker>
  </defs>
  <g
     id="layer1">
    <path
       d="M 305.71429 262.36218 A 54.285713 52.857143 0 1 1  197.14286,262.36218 A 54.285713 52.857143 0 1 1  305.71429 262.36218 z"
       transform="matrix(0.846481,0,0,0.874332,-43.229,103.543)"
       style="opacity:1;fill:#ff5555;fill-opacity:1;stroke:#000000;stroke-width:8.80000019;stroke-miterlimit:4;stroke-dasharray:none;stroke-opacity:1"
       id="path4417" />
    <path
       d="M 305.71429 262.36218 A 54.285713 52.857143 0 1 1  197.14286,262.36218 A 54.285713 52.857143 0 1 1  305.71429 262.36218 z"
       transform="matrix(0.846481,0,0,0.874332,771.171,69.494)"
       style="opacity:1;fill:#ffff33;fill-opacity:1;stroke:#000000;stroke-width:8.80000019;stroke-miterlimit:4;stroke-dasharray:none;stroke-opacity:1"
       id="path4419" />
    <path
       d="M 305.71429 262.36218 A 54.285713 52.857143 0 1 1  197.14286,262.36218 A 54.285713 52.857143 0 1 1  305.71429 262.36218 z"
       transform="matrix(0.846481,0,0,0.874332,365.456,-118.582)"
       style="fill:#ffff33;fill-opacity:1;stroke:#000000;stroke-width:8.80000019;stroke-miterlimit:4;stroke-dasharray:none;stroke-opacity:1"
       id="path4421" />
    <path
       d="M 305.71429 262.36218 A 54.285713 52.857143 0 1 1  197.14286,262.36218 A 54.285713 52.857143 0 1 1  305.71429 262.36218 z"
       transform="matrix(0.846481,0,0,0.874332,336.885,384.275)"
       style="opacity:1;fill:#55ff55;fill-opacity:1;stroke:#000000;stroke-width:8.80000019;stroke-miterlimit:4;stroke-dasharray:none;stroke-opacity:1"
       id="path4423" />
    <path
       d="M 305.71429 262.36218 A 54.285713 52.857143 0 1 1  197.14286,262.36218 A 54.285713 52.857143 0 1 1  305.71429 262.36218 z"
       transform="matrix(0.846481,0,0,0.874332,636.885,-75.725)"
       style="opacity:1;fill:#55ff55;fill-opacity:1;stroke:#000000;stroke-width:8.80000019;stroke-miterlimit:4;stroke-dasharray:none;stroke-opacity:1"
       id="path4425" />
    <path
       d="M 305.71429 262.36218 A 54.285713 52.857143 0 1 1  197.14286,262.36218 A 54.285713 52.857143 0 1 1  305.71429 262.36218 z"
       transform="matrix(0.846481,0,0,0.874332,551.171,189.989)"
       style="opacity:1;fill:#ffff33;fill-opacity:1;stroke:#000000;stroke-width:8.80000019;stroke-miterlimit:4;stroke-dasharray:none;stroke-opacity:1"
       id="path4427" />
    <path
       d="M 305.71429 262.36218 A 54.285713 52.857143 0 1 1  197.14286,262.36218 A 54.285713 52.857143 0 1 1  305.71429 262.36218 z"
       transform="matrix(0.846481,0,0,0.874332,648.314,361.418)"
       style="opacity:1;fill:#55ff55;fill-opacity:1;stroke:#000000;stroke-width:8.80000019;stroke-miterlimit:4;stroke-dasharray:none;stroke-opacity:1"
       id="path4429" />
    <path
       d="M 349.66498,331.66359 L 649.81391,231.70614"
       style="fill:none;fill-opacity:0.75;fill-rule:evenodd;stroke:#000000;stroke-width:4.69999981;stroke-linecap:butt;stroke-linejoin:miter;marker-start:none;marker-end:url(#Arrow2Lend);stroke-miterlimit:4;stroke-dasharray:none;stroke-opacity:1"
       id="path4433"
       sodipodi:nodetypes="cc" />
    <path
       d="M 352.45304,331.54914 L 428.61261,427.52255"
       style="fill:none;fill-opacity:0.75;fill-rule:evenodd;stroke:#000000;stroke-width:4.69999981;stroke-linecap:butt;stroke-linejoin:miter;marker-start:none;marker-end:url(#Arrow2Lend);stroke-miterlimit:4;stroke-dasharray:none;stroke-opacity:1"
       id="path4435"
       sodipodi:nodetypes="cc" />
    <path
       d="M 350.36306,333.94609 L 820.7354,573.8929"
       style="fill:none;fill-opacity:0.75;fill-rule:evenodd;stroke:#000000;stroke-width:4.69999981;stroke-linecap:butt;stroke-linejoin:miter;marker-start:none;marker-end:url(#Arrow2Lend);stroke-miterlimit:4;stroke-dasharray:none;stroke-opacity:1"
       id="path4437"
       sodipodi:nodetypes="cc" />
  </g>
  <path
     style="fill:none;fill-opacity:0.75;fill-rule:evenodd;stroke:#000000;stroke-width:4.69999981;stroke-linecap:butt;stroke-linejoin:miter;stroke-miterlimit:4;stroke-dasharray:none;stroke-opacity:1"
     d="M 217.42021,334.10904 L 353.05851,332.11436"
     id="path1410" />
</svg>
