<?xml version="1.0" standalone="no"?>
<!DOCTYPE svg PUBLIC "-//W3C//DTD SVG 1.1//EN"
"http://www.w3.org/Graphics/SVG/1.1/DTD/svg11.dtd">
<!-- Creator: fig2dev Version 3.2 Patchlevel 5e -->
<!-- CreationDate: Wed Mar 12 11:00:59 2014 -->
<!-- Magnification: 1.050 -->
<svg	xmlns="http://www.w3.org/2000/svg"
	xmlns:xlink="http://www.w3.org/1999/xlink"
	width="6.7in" height="5.5in"
	viewBox="3551 1543 8026 6551">
<g style="stroke-width:.025in; fill:none">
<!-- Line -->
<!--  ISP1  -->
<polygon points="7898,4283
7903,4299
7909,4313
7918,4328
7927,4342
7939,4356
7951,4370
7966,4385
7983,4398
8002,4413
8023,4427
8045,4441
8069,4456
8094,4470
8121,4485
8150,4499
8180,4514
8212,4529
8243,4543
8277,4558
8311,4574
8348,4590
8386,4606
8411,4617
8436,4628
8464,4640
8492,4653
8520,4665
8551,4678
8581,4692
8614,4706
8646,4722
8680,4737
8714,4753
8750,4769
8786,4787
8824,4804
8860,4823
8898,4840
8936,4859
8975,4878
9013,4898
9050,4918
9088,4938
9126,4958
9164,4978
9200,4999
9236,5019
9271,5040
9306,5060
9339,5081
9373,5101
9405,5122
9437,5142
9467,5163
9498,5184
9527,5205
9558,5227
9588,5250
9618,5273
9649,5296
9678,5320
9708,5345
9737,5370
9767,5395
9797,5421
9826,5446
9856,5472
9885,5499
9914,5524
9944,5550
9972,5575
10001,5601
10029,5626
10057,5650
10085,5673
10112,5696
10138,5718
10164,5739
10191,5759
10216,5778
10240,5796
10264,5813
10287,5828
10311,5843
10333,5856
10356,5868
10379,5879
10402,5889
10425,5899
10449,5907
10473,5914
10497,5921
10522,5925
10548,5929
10573,5931
10599,5932
10624,5932
10650,5931
10677,5929
10703,5926
10729,5921
10755,5914
10782,5907
10807,5899
10832,5889
10857,5880
10881,5868
10904,5856
10927,5842
10949,5828
10970,5814
10990,5798
11009,5782
11027,5765
11045,5748
11062,5730
11079,5712
11095,5693
11107,5675
11120,5657
11132,5638
11144,5618
11155,5597
11166,5576
11175,5553
11185,5530
11194,5505
11203,5480
11210,5453
11216,5425
11222,5396
11227,5365
11230,5334
11232,5302
11234,5269
11234,5234
11234,5200
11232,5164
11229,5127
11225,5090
11218,5053
11212,5014
11205,4976
11195,4936
11185,4897
11173,4856
11161,4816
11147,4775
11131,4734
11116,4692
11098,4649
11079,4606
11062,4570
11044,4533
11026,4496
11006,4458
10986,4419
10964,4380
10942,4339
10919,4298
10894,4256
10869,4213
10843,4170
10815,4125
10787,4081
10758,4036
10727,3991
10697,3946
10664,3901
10633,3855
10599,3809
10566,3764
10533,3719
10498,3675
10464,3631
10429,3588
10394,3546
10360,3504
10326,3463
10291,3424
10257,3386
10223,3349
10190,3313
10156,3279
10123,3246
10091,3214
10059,3185
10028,3155
9997,3128
9967,3103
9937,3079
9907,3057
9879,3035
9850,3016
9815,2993
9781,2973
9746,2954
9713,2937
9679,2922
9646,2910
9612,2898
9579,2889
9544,2881
9510,2875
9478,2871
9444,2869
9411,2868
9377,2868
9344,2871
9312,2874
9279,2879
9247,2886
9215,2894
9185,2902
9153,2913
9124,2923
9095,2936
9066,2949
9038,2962
9011,2976
8983,2991
8957,3005
8932,3021
8907,3037
8882,3053
8858,3069
8834,3085
8811,3102
8782,3122
8753,3143
8725,3164
8697,3185
8667,3207
8638,3229
8609,3251
8580,3274
8551,3297
8521,3320
8492,3343
8464,3366
8435,3390
8407,3413
8380,3436
8353,3458
8328,3479
8303,3500
8280,3520
8257,3540
8236,3558
8215,3575
8196,3592
8178,3608
8161,3623
8145,3636
8131,3649
8118,3661
8096,3680
8076,3697
8059,3713
8044,3728
8030,3740
8017,3753
8007,3764
7998,3776
7990,3786
7983,3798
7977,3808
7972,3820
7967,3832
7962,3844
7958,3858
7952,3874
7947,3889
7942,3906
7935,3924
7929,3945
7923,3967
7917,3990
7910,4014
7905,4040
7899,4067
7895,4094
7890,4120
7887,4146
7886,4172
7885,4197
7886,4220
7888,4242
7892,4263
7898,4283
" style="stroke:#000000;stroke-width:8;
stroke-linejoin:bevel; stroke-linecap:butt;
fill:#bfbfbf;
"/>
<!-- Line -->
<!--  ISP2  -->
<polygon points="6960,6591
6957,6621
6956,6651
6956,6683
6958,6713
6961,6744
6966,6774
6973,6804
6982,6834
6992,6864
7004,6894
7018,6923
7034,6952
7050,6980
7069,7008
7090,7036
7112,7063
7135,7088
7161,7113
7187,7138
7215,7161
7244,7183
7274,7204
7304,7223
7337,7241
7370,7258
7402,7274
7437,7289
7471,7301
7507,7313
7543,7323
7580,7333
7616,7341
7654,7349
7693,7354
7728,7358
7763,7361
7800,7363
7838,7364
7876,7365
7916,7364
7955,7363
7997,7361
8039,7358
8082,7354
8127,7350
8172,7343
8217,7337
8263,7330
8309,7321
8356,7312
8404,7302
8452,7291
8499,7279
8546,7268
8594,7255
8641,7241
8687,7228
8733,7213
8779,7198
8824,7184
8868,7168
8910,7152
8952,7137
8993,7120
9033,7104
9071,7087
9109,7070
9146,7054
9182,7036
9216,7019
9250,7001
9283,6984
9321,6962
9358,6941
9395,6919
9429,6897
9464,6874
9499,6850
9532,6826
9565,6802
9596,6776
9628,6750
9658,6725
9688,6698
9716,6671
9743,6644
9770,6617
9796,6588
9819,6561
9842,6534
9864,6507
9884,6479
9903,6453
9920,6427
9935,6401
9950,6375
9964,6350
9975,6325
9987,6302
9996,6278
10005,6255
10012,6233
10018,6211
10024,6188
10028,6165
10031,6142
10033,6120
10034,6097
10034,6075
10033,6052
10030,6029
10026,6007
10019,5984
10012,5961
10004,5939
9992,5916
9981,5893
9967,5871
9951,5849
9933,5828
9914,5807
9895,5786
9872,5766
9849,5748
9824,5729
9798,5711
9771,5694
9742,5677
9712,5661
9681,5646
9649,5631
9615,5617
9580,5604
9543,5590
9511,5580
9478,5569
9443,5559
9407,5548
9371,5539
9333,5529
9293,5519
9252,5509
9210,5500
9167,5491
9123,5482
9078,5472
9033,5464
8986,5456
8939,5447
8892,5439
8845,5430
8796,5423
8749,5416
8703,5408
8656,5401
8611,5395
8565,5388
8521,5382
8478,5377
8437,5371
8396,5365
8358,5361
8321,5356
8284,5352
8250,5348
8218,5343
8186,5340
8157,5337
8129,5333
8102,5331
8068,5327
8035,5322
8006,5319
7977,5317
7951,5314
7927,5313
7904,5312
7883,5312
7862,5313
7843,5315
7825,5318
7808,5322
7792,5328
7776,5335
7761,5342
7746,5352
7733,5362
7718,5375
7704,5387
7690,5402
7675,5418
7659,5436
7644,5455
7627,5475
7609,5496
7590,5520
7574,5539
7558,5559
7540,5580
7522,5602
7502,5626
7482,5651
7461,5677
7439,5704
7416,5733
7393,5762
7370,5794
7345,5825
7321,5858
7297,5892
7272,5927
7248,5962
7224,5997
7201,6034
7177,6071
7154,6108
7132,6144
7112,6181
7092,6217
7074,6254
7056,6289
7040,6325
7024,6360
7011,6394
6999,6429
6987,6461
6979,6495
6971,6527
6964,6559
6960,6591
" style="stroke:#000000;stroke-width:8;
stroke-linejoin:bevel; stroke-linecap:butt;
fill:#bfbfbf;
"/>
<!-- Line -->
<!--  ISP3  -->
<polygon points="7283,5646
7267,5643
7251,5638
7235,5632
7219,5623
7205,5611
7190,5597
7175,5583
7161,5565
7147,5545
7133,5524
7121,5501
7108,5477
7097,5451
7085,5426
7075,5400
7064,5374
7055,5348
7046,5321
7038,5295
7029,5270
7022,5245
7016,5220
7007,5193
7001,5166
6994,5139
6987,5112
6981,5084
6976,5057
6972,5029
6967,5002
6964,4975
6962,4948
6960,4921
6960,4896
6961,4871
6963,4848
6966,4826
6971,4805
6976,4785
6982,4766
6991,4748
7000,4732
7009,4716
7022,4701
7036,4686
7050,4671
7067,4658
7086,4644
7106,4632
7128,4619
7151,4607
7175,4597
7201,4586
7228,4577
7254,4569
7281,4561
7310,4555
7337,4550
7364,4544
7393,4540
7420,4537
7448,4535
7472,4533
7496,4532
7521,4532
7546,4531
7572,4531
7598,4532
7626,4532
7653,4534
7681,4535
7710,4537
7738,4539
7766,4541
7795,4544
7823,4548
7850,4551
7878,4554
7904,4557
7929,4560
7953,4564
7977,4567
8000,4572
8022,4575
8043,4579
8062,4582
8089,4587
8114,4592
8139,4597
8163,4602
8187,4607
8212,4614
8235,4619
8258,4625
8280,4632
8302,4638
8322,4644
8342,4651
8361,4658
8379,4665
8395,4671
8411,4679
8426,4685
8440,4692
8456,4701
8473,4709
8489,4719
8504,4729
8520,4740
8536,4751
8551,4764
8565,4776
8579,4790
8593,4804
8604,4817
8615,4832
8624,4846
8633,4860
8639,4875
8645,4890
8648,4900
8651,4912
8655,4923
8657,4935
8658,4948
8658,4960
8657,4974
8656,4987
8653,5001
8648,5014
8644,5027
8638,5041
8630,5055
8622,5067
8612,5080
8601,5091
8588,5102
8576,5113
8561,5123
8546,5132
8530,5141
8512,5149
8492,5156
8471,5164
8448,5171
8424,5177
8398,5183
8371,5189
8343,5194
8313,5200
8283,5204
8253,5208
8221,5212
8190,5216
8159,5219
8130,5223
8100,5225
8072,5227
8046,5229
8020,5231
7997,5232
7975,5233
7955,5235
7937,5236
7913,5237
7892,5238
7875,5239
7858,5241
7842,5245
7827,5248
7814,5252
7801,5256
7790,5264
7778,5271
7766,5279
7755,5290
7742,5301
7730,5315
7716,5330
7700,5346
7688,5359
7674,5374
7660,5390
7645,5406
7627,5423
7609,5441
7590,5460
7570,5479
7549,5498
7528,5517
7506,5535
7484,5553
7462,5570
7439,5586
7418,5600
7396,5612
7376,5623
7356,5631
7336,5638
7318,5643
7300,5645
7283,5646
" style="stroke:#000000;stroke-width:8;
stroke-linejoin:bevel; stroke-linecap:butt;
fill:#bfbfbf;
"/>
<!-- Line -->
<!--  ISP4  -->
<polygon points="4000,3133
3979,3172
3958,3211
3938,3251
3918,3293
3899,3335
3880,3379
3861,3424
3844,3470
3826,3518
3809,3566
3793,3615
3777,3666
3762,3718
3748,3771
3733,3824
3719,3880
3706,3935
3693,3992
3680,4050
3669,4108
3658,4166
3648,4226
3638,4286
3629,4346
3620,4407
3612,4468
3605,4528
3598,4588
3592,4649
3586,4709
3582,4769
3577,4828
3573,4887
3570,4945
3568,5003
3566,5060
3565,5117
3564,5172
3564,5227
3564,5280
3565,5334
3566,5386
3567,5438
3569,5488
3572,5539
3575,5588
3579,5636
3583,5685
3587,5739
3592,5793
3598,5846
3606,5899
3613,5952
3620,6005
3630,6056
3639,6109
3649,6160
3660,6213
3672,6264
3685,6314
3698,6366
3712,6416
3728,6467
3743,6516
3759,6565
3777,6614
3795,6662
3814,6709
3834,6755
3854,6801
3875,6845
3897,6889
3919,6931
3942,6972
3965,7012
3989,7049
4013,7087
4038,7123
4064,7158
4090,7191
4116,7223
4142,7254
4170,7283
4197,7311
4224,7338
4253,7364
4281,7388
4310,7412
4340,7435
4370,7457
4402,7478
4435,7499
4469,7519
4503,7538
4539,7555
4576,7573
4614,7589
4653,7605
4692,7619
4732,7632
4774,7645
4816,7656
4859,7667
4903,7676
4948,7685
4993,7692
5039,7697
5084,7702
5130,7706
5177,7708
5224,7709
5270,7708
5316,7707
5362,7703
5408,7699
5454,7694
5498,7688
5542,7680
5585,7672
5628,7661
5670,7651
5711,7638
5751,7625
5790,7611
5828,7595
5865,7580
5902,7562
5938,7544
5973,7524
6008,7504
6043,7481
6078,7457
6113,7432
6146,7404
6180,7376
6214,7346
6247,7316
6280,7283
6312,7251
6344,7216
6375,7181
6407,7144
6438,7106
6469,7067
6498,7028
6528,6987
6557,6948
6584,6907
6612,6865
6639,6824
6664,6782
6689,6741
6712,6700
6735,6659
6758,6619
6780,6579
6800,6540
6818,6502
6836,6466
6854,6430
6870,6394
6886,6361
6900,6328
6914,6297
6927,6266
6938,6237
6950,6208
6960,6181
6977,6136
6992,6094
7005,6053
7017,6015
7027,5980
7037,5945
7044,5911
7050,5881
7055,5850
7058,5822
7060,5796
7061,5771
7060,5748
7059,5725
7057,5704
7054,5686
7049,5667
7045,5649
7040,5632
7035,5615
7029,5598
7023,5583
7017,5564
7009,5544
7002,5524
6995,5503
6987,5480
6980,5457
6972,5433
6964,5408
6956,5382
6949,5356
6941,5330
6934,5303
6928,5277
6921,5251
6916,5225
6911,5200
6907,5174
6902,5150
6899,5126
6897,5102
6895,5078
6894,5054
6894,5029
6894,5004
6895,4979
6897,4954
6900,4928
6904,4901
6910,4875
6916,4850
6923,4825
6931,4800
6940,4775
6951,4752
6962,4730
6974,4709
6986,4690
7001,4671
7016,4654
7032,4638
7046,4623
7063,4608
7080,4595
7099,4581
7119,4567
7140,4554
7162,4540
7185,4527
7209,4513
7234,4498
7259,4485
7285,4470
7311,4455
7337,4440
7362,4426
7387,4411
7413,4395
7437,4381
7460,4365
7483,4348
7505,4331
7527,4314
7545,4299
7564,4283
7582,4266
7600,4248
7617,4230
7636,4211
7654,4191
7673,4169
7692,4146
7711,4124
7730,4100
7749,4076
7766,4052
7785,4027
7803,4002
7822,3976
7840,3950
7857,3925
7874,3900
7890,3876
7907,3850
7923,3826
7939,3802
7953,3779
7969,3755
7984,3732
7998,3709
8014,3685
8029,3661
8045,3637
8060,3612
8076,3587
8092,3561
8109,3534
8124,3507
8141,3479
8157,3451
8174,3422
8190,3394
8205,3364
8221,3335
8237,3306
8251,3276
8266,3247
8280,3217
8293,3188
8306,3159
8318,3130
8330,3102
8341,3072
8351,3044
8362,3016
8371,2988
8380,2960
8388,2932
8396,2902
8405,2873
8412,2843
8419,2811
8426,2779
8432,2746
8438,2712
8444,2678
8448,2644
8452,2609
8456,2574
8458,2539
8460,2504
8461,2471
8462,2436
8462,2403
8461,2370
8459,2338
8456,2306
8453,2276
8449,2246
8445,2217
8438,2188
8432,2160
8425,2134
8417,2109
8409,2083
8400,2058
8389,2034
8379,2010
8366,1985
8352,1961
8339,1937
8323,1912
8307,1889
8289,1865
8270,1843
8250,1820
8230,1798
8208,1777
8186,1757
8163,1737
8139,1718
8114,1700
8089,1683
8062,1668
8036,1653
8010,1639
7983,1627
7955,1615
7927,1605
7899,1596
7869,1588
7841,1581
7811,1574
7782,1569
7752,1565
7722,1562
7691,1559
7658,1556
7625,1555
7591,1555
7555,1555
7520,1556
7482,1558
7444,1560
7405,1563
7366,1566
7327,1570
7287,1575
7246,1581
7206,1586
7165,1592
7125,1598
7084,1606
7044,1613
7005,1620
6966,1628
6929,1635
6892,1644
6855,1652
6819,1659
6785,1668
6751,1676
6718,1685
6685,1692
6654,1700
6617,1710
6581,1719
6545,1729
6511,1738
6476,1748
6440,1757
6406,1766
6371,1777
6337,1786
6303,1796
6269,1806
6236,1816
6203,1825
6172,1835
6141,1843
6111,1853
6082,1861
6055,1869
6029,1877
6004,1884
5980,1891
5958,1898
5937,1904
5917,1910
5899,1916
5881,1920
5865,1925
5850,1929
5832,1933
5815,1938
5799,1942
5783,1945
5767,1948
5753,1951
5737,1955
5720,1959
5703,1963
5686,1967
5668,1972
5648,1977
5626,1984
5604,1990
5580,1998
5553,2007
5526,2015
5496,2026
5464,2037
5430,2050
5394,2064
5354,2078
5331,2087
5307,2096
5280,2107
5254,2117
5227,2129
5197,2141
5168,2154
5137,2167
5104,2182
5070,2198
5037,2215
5001,2233
4965,2251
4928,2270
4890,2291
4852,2313
4813,2337
4773,2361
4733,2386
4693,2412
4654,2439
4614,2468
4574,2497
4534,2528
4495,2559
4456,2592
4418,2624
4381,2659
4344,2693
4307,2729
4272,2766
4238,2804
4205,2841
4173,2880
4141,2920
4111,2961
4081,3002
4053,3045
4026,3088
4000,3133
" style="stroke:#000000;stroke-width:8;
stroke-linejoin:bevel; stroke-linecap:butt;
fill:#bfbfbf;
"/>
<!-- Line -->
<polyline points="4677,4110
6188,5055
" style="stroke:#000000;stroke-width:8;
stroke-linejoin:miter; stroke-linecap:butt;
"/>
<!-- Line -->
<polyline points="5102,5480
6188,5055
" style="stroke:#000000;stroke-width:8;
stroke-linejoin:miter; stroke-linecap:butt;
"/>
<!-- Line -->
<polyline points="6047,3259
6944,4346
" style="stroke:#000000;stroke-width:8;
stroke-linejoin:miter; stroke-linecap:butt;
"/>
<!-- Line -->
<polyline points="7559,3118
6944,4346
" style="stroke:#000000;stroke-width:8;
stroke-linejoin:miter; stroke-linecap:butt;
"/>
<!-- Line -->
<polyline points="9118,3165
8125,4157
" style="stroke:#000000;stroke-width:8;
stroke-linejoin:miter; stroke-linecap:butt;
"/>
<!-- Line -->
<polyline points="9968,4015
8125,4157
" style="stroke:#000000;stroke-width:8;
stroke-linejoin:miter; stroke-linecap:butt;
"/>
<!-- Line -->
<polyline points="10157,4960
8125,4157
" style="stroke:#000000;stroke-width:8;
stroke-linejoin:miter; stroke-linecap:butt;
"/>
<!-- Line -->
<polyline points="9637,5905
7889,5811
" style="stroke:#000000;stroke-width:8;
stroke-linejoin:miter; stroke-linecap:butt;
"/>
<!-- Line -->
<polyline points="8692,6708
7889,5811
" style="stroke:#000000;stroke-width:8;
stroke-linejoin:miter; stroke-linecap:butt;
"/>
<!-- Line -->
<polyline points="5669,6708
6803,5811
" style="stroke:#000000;stroke-width:8;
stroke-linejoin:miter; stroke-linecap:butt;
"/>
<!-- Line -->
<polyline points="7275,6708
7889,5858
" style="stroke:#000000;stroke-width:8;
stroke-linejoin:miter; stroke-linecap:butt;
"/>
<!-- Line -->
<polyline points="6047,3212
6188,5055
6944,4346
6755,5811
6188,5055
7228,5055
7937,5858
8314,4866
7181,5055
8125,4157
6944,4346
" style="stroke:#000000;stroke-width:8;
stroke-linejoin:miter; stroke-linecap:butt;
"/>
<!-- Circle -->
<circle cx="6188" cy="5055" r="170"
 style="fill:#00ff00;stroke:#000000;stroke-width:8;"/>
<!-- Circle -->
<circle cx="6944" cy="4346" r="170"
 style="fill:#00ff00;stroke:#000000;stroke-width:8;"/>
<!-- Circle -->
<circle cx="7228" cy="5055" r="170"
 style="fill:#00ff00;stroke:#000000;stroke-width:8;"/>
<!-- Circle -->
<circle cx="6803" cy="5811" r="170"
 style="fill:#00ff00;stroke:#000000;stroke-width:8;"/>
<!-- Circle -->
<circle cx="7889" cy="5811" r="170"
 style="fill:#00ff00;stroke:#000000;stroke-width:8;"/>
<!-- Circle -->
<circle cx="8314" cy="4866" r="170"
 style="fill:#00ff00;stroke:#000000;stroke-width:8;"/>
<!-- Circle -->
<circle cx="8125" cy="4157" r="170"
 style="fill:#00ff00;stroke:#000000;stroke-width:8;"/>
<!-- Circle -->
<circle cx="5102" cy="5480" r="170"
 style="fill:#00ffff;stroke:#000000;stroke-width:8;"/>
<!-- Circle -->
<circle cx="9637" cy="5905" r="170"
 style="fill:#00ffff;stroke:#000000;stroke-width:8;"/>
<!-- Circle -->
<circle cx="9968" cy="4015" r="170"
 style="fill:#00ffff;stroke:#000000;stroke-width:8;"/>
<!-- Circle -->
<circle cx="6047" cy="3259" r="170"
 style="fill:#00ffff;stroke:#000000;stroke-width:8;"/>
<!-- Circle -->
<circle cx="9118" cy="3165" r="170"
 style="fill:#00ffff;stroke:#000000;stroke-width:8;"/>
<!-- Circle -->
<circle cx="8645" cy="6708" r="170"
 style="fill:#00ffff;stroke:#000000;stroke-width:8;"/>
<!-- Circle -->
<circle cx="7275" cy="6708" r="170"
 style="fill:#00ffff;stroke:#000000;stroke-width:8;"/>
<!-- Line -->
<polyline points="7653,1816
7659,1808
7670,1805
7696,1801
7715,1802
7728,1802
7748,1804
7763,1812
7767,1818
7767,1842
7771,1895
7779,2033
7781,2079
7781,2082
7781,2088
7783,2091
7783,2121
7785,2131
7793,2132
7881,2136
7934,2137
8000,2143
8058,2153
8073,2157
8075,2164
8079,2193
8085,2239
8089,2297
8093,2353
8099,2467
8107,2650
8107,2709
8108,2849
8108,3027
8103,3204
8093,3385
8087,3471
8080,3551
8079,3571
8074,3576
8067,3577
8060,3580
8043,3583
8010,3584
7959,3586
7893,3587
7800,3587
7757,3585
7701,3584
7614,3579
7591,3576
7588,3571
7582,3533
7576,3470
7573,3400
7568,3280
7564,3137
7561,2969
7562,2793
7568,2585
7582,2343
7584,2332
7581,2325
7582,2310
7582,2299
7582,2285
7579,2277
7575,2269
7572,2265
7582,2256
7584,2250
7588,2221
7590,2204
7594,2202
7595,2198
7600,2171
7602,2158
7607,2152
7613,2146
7615,2139
7613,2137
7614,2122
7615,2117
7615,2113
7613,2113
7618,2057
7627,1984
7636,1902
7648,1829
7653,1816
7659,1808
" style="stroke:#000000;stroke-width:8;
stroke-linejoin:miter; stroke-linecap:butt;
fill:#ffffff;
"/>
<!-- Text -->
<text xml:space="preserve" x="6188" y="5149" fill="#000000"  font-family="Times" font-style="italic" font-weight="normal" font-size="152" text-anchor="middle">R</text>
<!-- Text -->
<text xml:space="preserve" x="6944" y="4440" fill="#000000"  font-family="Times" font-style="italic" font-weight="normal" font-size="152" text-anchor="middle">R</text>
<!-- Text -->
<text xml:space="preserve" x="7228" y="5149" fill="#000000"  font-family="Times" font-style="italic" font-weight="normal" font-size="152" text-anchor="middle">R</text>
<!-- Text -->
<text xml:space="preserve" x="6803" y="5905" fill="#000000"  font-family="Times" font-style="italic" font-weight="normal" font-size="152" text-anchor="middle">R</text>
<!-- Text -->
<text xml:space="preserve" x="7889" y="5905" fill="#000000"  font-family="Times" font-style="italic" font-weight="normal" font-size="152" text-anchor="middle">R</text>
<!-- Text -->
<text xml:space="preserve" x="8314" y="4960" fill="#000000"  font-family="Times" font-style="italic" font-weight="normal" font-size="152" text-anchor="middle">R</text>
<!-- Text -->
<text xml:space="preserve" x="8125" y="4251" fill="#000000"  font-family="Times" font-style="italic" font-weight="normal" font-size="152" text-anchor="middle">R</text>
<!-- Text -->
<text xml:space="preserve" x="5102" y="5574" fill="#000000"  font-family="Times" font-style="italic" font-weight="normal" font-size="152" text-anchor="middle">H</text>
<!-- Text -->
<text xml:space="preserve" x="9637" y="6000" fill="#000000"  font-family="Times" font-style="italic" font-weight="normal" font-size="152" text-anchor="middle">H</text>
<!-- Text -->
<text xml:space="preserve" x="9968" y="4110" fill="#000000"  font-family="Times" font-style="italic" font-weight="normal" font-size="152" text-anchor="middle">H</text>
<!-- Text -->
<text xml:space="preserve" x="6047" y="3354" fill="#000000"  font-family="Times" font-style="italic" font-weight="normal" font-size="152" text-anchor="middle">H</text>
<!-- Text -->
<text xml:space="preserve" x="9118" y="3259" fill="#000000"  font-family="Times" font-style="italic" font-weight="normal" font-size="152" text-anchor="middle">H</text>
<!-- Text -->
<text xml:space="preserve" x="8645" y="6803" fill="#000000"  font-family="Times" font-style="italic" font-weight="normal" font-size="152" text-anchor="middle">H</text>
<!-- Text -->
<text xml:space="preserve" x="7275" y="6803" fill="#000000"  font-family="Times" font-style="italic" font-weight="normal" font-size="152" text-anchor="middle">H</text>
<!-- Ellipse -->
<ellipse transform="translate(7993,2213) rotate(-0.00000000)" rx="26" ry="34"
 style="stroke:#000000;stroke-width:8;"/>
<!-- Ellipse -->
<ellipse transform="translate(7837,3032) rotate(-0.00000000)" rx="39" ry="80"
 style="stroke:#000000;stroke-width:8;"/>
<!-- Ellipse -->
<ellipse transform="translate(7670,3177) rotate(-0.00000000)" rx="62" ry="32"
 style="stroke:#000000;stroke-width:8;"/>
<!-- Ellipse -->
<ellipse transform="translate(7834,3188) rotate(-0.00000000)" rx="62" ry="32"
 style="stroke:#000000;stroke-width:8;"/>
<!-- Ellipse -->
<ellipse transform="translate(7996,3180) rotate(-0.00000000)" rx="62" ry="32"
 style="stroke:#000000;stroke-width:8;"/>
<!-- Ellipse -->
<ellipse transform="translate(7672,3269) rotate(-0.00000000)" rx="62" ry="32"
 style="stroke:#000000;stroke-width:8;"/>
<!-- Ellipse -->
<ellipse transform="translate(7833,3280) rotate(-0.00000000)" rx="62" ry="32"
 style="stroke:#000000;stroke-width:8;"/>
<!-- Ellipse -->
<ellipse transform="translate(7994,3272) rotate(-0.00000000)" rx="62" ry="32"
 style="stroke:#000000;stroke-width:8;"/>
<!-- Ellipse -->
<ellipse transform="translate(7988,3362) rotate(-0.00000000)" rx="62" ry="32"
 style="stroke:#000000;stroke-width:8;"/>
<!-- Ellipse -->
<ellipse transform="translate(7833,3373) rotate(-0.00000000)" rx="62" ry="32"
 style="stroke:#000000;stroke-width:8;"/>
<!-- Ellipse -->
<ellipse transform="translate(7677,3361) rotate(-0.00000000)" rx="62" ry="32"
 style="stroke:#000000;stroke-width:8;"/>
<!-- Ellipse -->
<ellipse transform="translate(7680,3454) rotate(-0.00000000)" rx="62" ry="32"
 style="stroke:#000000;stroke-width:8;"/>
<!-- Ellipse -->
<ellipse transform="translate(7833,3465) rotate(-0.00000000)" rx="62" ry="32"
 style="stroke:#000000;stroke-width:8;"/>
<!-- Ellipse -->
<ellipse transform="translate(7986,3456) rotate(-0.00000000)" rx="62" ry="32"
 style="stroke:#000000;stroke-width:8;"/>
<!-- Ellipse -->
<ellipse transform="translate(7688,3521) rotate(-343.00118406)" rx="3" ry="26"
 style="stroke:#000000;stroke-width:8;"/>
<!-- Ellipse -->
<ellipse transform="translate(7672,3514) rotate(-343.00118406)" rx="2" ry="16"
 style="stroke:#000000;stroke-width:8;"/>
<!-- Ellipse -->
<ellipse transform="translate(7912,2304) rotate(-341.99850791)" rx="6" ry="62"
 style="stroke:#000000;stroke-width:8;"/>
<!-- Ellipse -->
<ellipse transform="translate(7841,2293) rotate(-341.99850791)" rx="5" ry="50"
 style="stroke:#000000;stroke-width:8;"/>
<!-- Ellipse -->
<ellipse transform="translate(7774,2287) rotate(-341.99850791)" rx="5" ry="45"
 style="stroke:#000000;stroke-width:8;"/>
<!-- Ellipse -->
<ellipse transform="translate(8012,3099) rotate(-18.00233392)" rx="47" ry="23"
 style="stroke:#000000;stroke-width:8;"/>
<!-- Ellipse -->
<ellipse transform="translate(7655,3095) rotate(-341.99850791)" rx="47" ry="23"
 style="stroke:#000000;stroke-width:8;"/>
<!-- Line -->
<polyline points="7880,2144
7893,2145
7893,2155
7888,2166
7883,2176
7879,2178
7874,2177
7874,2171
7874,2163
7876,2156
7879,2150
7879,2145
" style="stroke:#000000;stroke-width:8;
stroke-linejoin:miter; stroke-linecap:butt;
"/>
<!-- Line -->
<polyline points="7977,2202
7989,2197
8002,2193
8005,2193
8005,2197
8006,2199
8002,2200
7980,2208
7976,2209
7976,2206
7975,2203
7977,2203
" style="stroke:#000000;stroke-width:8;
stroke-linejoin:miter; stroke-linecap:butt;
"/>
<!-- Line -->
<polyline points="7977,2201
" style="stroke:#000000;stroke-width:8;
stroke-linejoin:miter; stroke-linecap:butt;
"/>
<!-- Line -->
<polyline points="7980,2217
7989,2212
8000,2206
8005,2206
8006,2208
8006,2212
8003,2214
7985,2220
7980,2222
7976,2221
7980,2217
7976,2217
" style="stroke:#000000;stroke-width:8;
stroke-linejoin:miter; stroke-linecap:butt;
"/>
<!-- Line -->
<polyline points="7980,2230
7981,2229
7988,2225
8002,2220
8006,2219
8007,2222
8007,2225
7997,2230
7982,2236
7979,2236
7979,2234
7979,2230
" style="stroke:#000000;stroke-width:8;
stroke-linejoin:miter; stroke-linecap:butt;
"/>
<!-- Line -->
<polyline points="7655,2517
7661,2515
7682,2512
7749,2507
7966,2510
8013,2516
8019,2519
8022,2576
8023,2689
8022,2780
8019,2818
8007,2826
7956,2827
7796,2827
7748,2827
7662,2823
7655,2818
7651,2811
7648,2709
7648,2536
7648,2520
7656,2515
" style="stroke:#000000;stroke-width:8;
stroke-linejoin:miter; stroke-linecap:butt;
"/>
<!-- Line -->
<polyline points="7618,2482
7661,2461
7692,2450
7739,2436
7813,2426
7867,2428
7938,2437
7993,2454
8058,2482
8061,2629
8062,2750
8057,2864
7971,2885
7900,2890
7814,2892
7749,2889
7654,2869
7612,2855
7611,2689
7614,2541
7615,2480
" style="stroke:#000000;stroke-width:8;
stroke-linejoin:miter; stroke-linecap:butt;
"/>
<!-- Line -->
<polyline points="7611,2857
7615,2987
" style="stroke:#000000;stroke-width:8;
stroke-linejoin:miter; stroke-linecap:butt;
"/>
<!-- Line -->
<polyline points="8057,2866
8053,2988
" style="stroke:#000000;stroke-width:8;
stroke-linejoin:miter; stroke-linecap:butt;
"/>
<!-- Line -->
<polyline points="7816,2900
7857,2900
" style="stroke:#000000;stroke-width:8;
stroke-linejoin:miter; stroke-linecap:butt;
"/>
<!-- Line -->
<polyline points="7592,2205
7595,2206
7595,2239
7593,2270
7592,2300
7591,2317
7590,2321
7586,2328
7583,2330
7582,2330
" style="stroke:#000000;stroke-width:8;
stroke-linejoin:miter; stroke-linecap:butt;
"/>
<!-- Line -->
<polyline points="7777,2983
7776,2983
7772,2983
7765,2984
7756,2986
7744,2991
7734,2996
7729,2998
7725,2999
7721,3002
7714,3008
7710,3013
7708,3015
7707,3017
7706,3017
7706,3018
7706,3019
7704,3022
7704,3026
7706,3034
7707,3037
7708,3039
7709,3043
7713,3049
7716,3055
7718,3056
7718,3057
7719,3057
7721,3058
7729,3062
7737,3066
7743,3068
7748,3070
7751,3071
7757,3074
7765,3077
7773,3079
7775,3080
7778,3079
7779,3078
7780,3078
7781,3077
7781,3076
7781,3075
7781,3074
7781,3071
7780,3067
7779,3065
7778,3064
7777,3062
7775,3056
7774,3049
7774,3047
7774,3046
7774,3044
7774,3035
7775,3024
7775,3018
7776,3014
7777,3007
7778,2998
7779,2992
7780,2991
7781,2991
7782,2988
7782,2986
7782,2985
7782,2984
7781,2983
7780,2982
7779,2982
7778,2983
7777,2983
" style="stroke:#000000;stroke-width:8;
stroke-linejoin:bevel; stroke-linecap:butt;
"/>
<!-- Line -->
<polyline points="7891,2983
7892,2983
7897,2984
7903,2985
7912,2987
7924,2992
7934,2997
7940,2999
7943,3000
7947,3003
7954,3009
7959,3014
7961,3016
7962,3018
7963,3018
7963,3019
7963,3020
7964,3023
7964,3027
7963,3035
7962,3038
7962,3040
7960,3044
7955,3050
7951,3056
7949,3058
7947,3059
7939,3063
7930,3067
7924,3069
7921,3071
7917,3072
7911,3075
7903,3078
7896,3080
7893,3081
7892,3081
7889,3080
7888,3079
7887,3079
7886,3078
7886,3077
7886,3076
7886,3075
7886,3072
7887,3068
7889,3066
7890,3065
7891,3063
7893,3057
7895,3050
7895,3047
7893,3044
7893,3035
7892,3024
7892,3018
7892,3014
7891,3008
7890,2999
7889,2993
7888,2992
7887,2993
7887,2992
7886,2990
7886,2987
7886,2985
7886,2984
7887,2983
7888,2983
7889,2983
7890,2983
7890,2984
7891,2984
" style="stroke:#000000;stroke-width:8;
stroke-linejoin:bevel; stroke-linecap:butt;
"/>
<!-- Line -->
<polyline points="7815,2893
7815,2894
7816,2894
7816,2896
7815,2899
7814,2902
7813,2904
7813,2906
7812,2908
7809,2912
7807,2917
7806,2919
7805,2920
7804,2922
7802,2928
7801,2932
7801,2935
7802,2938
7802,2939
" style="stroke:#000000;stroke-width:8;
stroke-linejoin:bevel; stroke-linecap:butt;
"/>
<!-- Line -->
<polyline points="7854,2893
7855,2895
7855,2898
7857,2902
7858,2908
7859,2912
7860,2913
7860,2914
7861,2915
7862,2919
7864,2923
7865,2925
7865,2927
7866,2929
7867,2933
7868,2936
7868,2938
7867,2939
7867,2940
" style="stroke:#000000;stroke-width:8;
stroke-linejoin:bevel; stroke-linecap:butt;
"/>
<!-- Line -->
<polyline points="7615,2988
7615,2990
7615,2996
7615,3005
7616,3017
7616,3028
7617,3039
7617,3040
7617,3042
7618,3043
7618,3044
7618,3045
7618,3046
7618,3045
7617,3045
7617,3044
7617,3043
7616,3043
7616,3042
7616,3041
7617,3041
7618,3041
7619,3041
7620,3041
7622,3041
7628,3041
7632,3041
7635,3040
7639,3040
7651,3041
7661,3043
7667,3044
7668,3045
7670,3045
7676,3048
7689,3054
7702,3061
7711,3065
7715,3067
7719,3070
7728,3076
7741,3084
7755,3092
7761,3098
7763,3100
7765,3101
7771,3105
7781,3111
7792,3117
7796,3119
7797,3119
7800,3119
7809,3122
7819,3124
7823,3125
7825,3126
7829,3126
7838,3127
7846,3127
7848,3127
7848,3126
7851,3126
7860,3123
7869,3120
7872,3118
7874,3118
7878,3116
7891,3108
7905,3100
7913,3095
7918,3091
7922,3088
7931,3083
7946,3075
7960,3067
7967,3063
7969,3062
7971,3061
7977,3059
7989,3054
8001,3048
8006,3046
8007,3045
8011,3044
8020,3042
8030,3041
8035,3042
8037,3044
8041,3044
8048,3044
8050,3044
8051,3043
8052,3043
8053,3042
8053,3043
8052,3043
8052,3042
8052,3041
8052,3040
8053,3038
8053,3035
8054,3025
8054,3018
8054,3013
8053,3007
8053,3000
8053,2992
8053,2991
8053,2990
8053,2988
8053,2987
8053,2986
8053,2985
8054,2985
8054,2986
8054,2987
8053,2987
8052,2987
8051,2987
8047,2987
8045,2988
8044,2990
8040,2990
8032,2990
8023,2988
8018,2987
8016,2987
8014,2986
8007,2985
7993,2981
7977,2977
7969,2974
7965,2972
7961,2971
7951,2967
7933,2961
7916,2955
7904,2952
7899,2950
7895,2949
7885,2945
7871,2941
7860,2938
7857,2937
7858,2938
7857,2938
7850,2937
7845,2936
7843,2936
7843,2935
7841,2935
7836,2935
7830,2935
7827,2935
7826,2936
7824,2936
7818,2937
7813,2938
7813,2937
7816,2937
7814,2937
7801,2940
7788,2943
7778,2946
7771,2949
7765,2950
7760,2951
7752,2954
7740,2957
7724,2961
7707,2966
7698,2970
7695,2971
7693,2971
7687,2974
7674,2977
7661,2980
7656,2981
7655,2982
7652,2982
7641,2984
7631,2986
7624,2986
7618,2987
7616,2987
7615,2987
" style="stroke:#000000;stroke-width:8;
stroke-linejoin:bevel; stroke-linecap:butt;
"/>
<!-- Text -->
<text xml:space="preserve" x="10157" y="2409" fill="#000000"  font-family="Times" font-style="normal" font-weight="normal" font-size="252" text-anchor="middle">and I must pay for two?</text>
<!-- Text -->
<text xml:space="preserve" x="10157" y="2173" fill="#000000"  font-family="Times" font-style="normal" font-weight="normal" font-size="252" text-anchor="middle">You pay only for one sent ...</text>
<!-- Text -->
<text xml:space="preserve" x="10157" y="1937" fill="#000000"  font-family="Times" font-style="normal" font-weight="normal" font-size="252" text-anchor="middle">Hey!</text>
<!-- Line -->
<polyline points="7889,4110
7304,4187
" style="stroke:#ff0000;stroke-width:8;
stroke-linejoin:miter; stroke-linecap:butt;
"/>
<!-- Arrowhead on XXXpoint 7889 4110 - 7165 4205-->
<polygon points="7337 4150
7186 4202
7345 4213
7310 4185
7337 4150

" style="stroke:#ff0000;stroke-width:8;stroke-miterlimit:8;
fill:#ff0000;"/>
<!-- Line -->
<polyline points="8023,4384
7595,4771
" style="stroke:#ff0000;stroke-width:8;
stroke-linejoin:miter; stroke-linecap:butt;
"/>
<!-- Arrowhead on XXXpoint 8023 4384 - 7490 4867-->
<polygon points="7574 4747
7503 4855
7617 4793
7574 4747

" style="stroke:#ff0000;stroke-width:8;stroke-miterlimit:8;
fill:#ff0000;"/>
<!-- Line -->
<polyline points="6992,4062
7407,3229
" style="stroke:#ff0000;stroke-width:8;
stroke-linejoin:miter; stroke-linecap:butt;
"/>
<!-- Arrowhead on XXXpoint 6992 4062 - 7470 3103-->
<polygon points="7435 3244
7463 3118
7378 3215
7435 3244

" style="stroke:#ff0000;stroke-width:8;stroke-miterlimit:8;
fill:#ff0000;"/>
<!-- Line -->
<polyline points="6236,5291
6444,5568
" style="stroke:#ff0000;stroke-width:8;
stroke-linejoin:miter; stroke-linecap:butt;
"/>
<!-- Arrowhead on XXXpoint 6236 5291 - 6529 5681-->
<polygon points="6417 5586
6518 5668
6468 5548
6417 5586

" style="stroke:#ff0000;stroke-width:8;stroke-miterlimit:8;
fill:#ff0000;"/>
<!-- Line -->
<polyline points="6566,5858
5910,6349
" style="stroke:#ff0000;stroke-width:8;
stroke-linejoin:miter; stroke-linecap:butt;
"/>
<!-- Arrowhead on XXXpoint 6566 5858 - 5798 6434-->
<polygon points="5893 6323
5812 6424
5931 6373
5893 6323

" style="stroke:#ff0000;stroke-width:8;stroke-miterlimit:8;
fill:#ff0000;"/>
<!-- Line -->
<polyline points="6047,4866
5349,4413
" style="stroke:#ff0000;stroke-width:8;
stroke-linejoin:miter; stroke-linecap:butt;
"/>
<!-- Arrowhead on XXXpoint 6047 4866 - 5230 4337-->
<polygon points="5367 4388
5245 4346
5333 4440
5367 4388

" style="stroke:#ff0000;stroke-width:8;stroke-miterlimit:8;
fill:#ff0000;"/>
<!-- Line -->
<polyline points="9874,5007
8431,4438
" style="stroke:#ff0000;stroke-width:8;
stroke-linejoin:miter; stroke-linecap:butt;
"/>
<!-- Arrowhead on XXXpoint 9874 5007 - 8300 4387-->
<polygon points="8476 4423
8319 4394
8453 4480
8435 4440
8476 4423

" style="stroke:#ff0000;stroke-width:8;stroke-miterlimit:8;
fill:#ff0000;"/>
<!-- Line -->
<polyline points="6992,4960
6550,4960
" style="stroke:#ff0000;stroke-width:8;
stroke-linejoin:miter; stroke-linecap:butt;
"/>
<!-- Arrowhead on XXXpoint 6992 4960 - 6409 4960-->
<polygon points="6552 4929
6426 4960
6552 4992
6552 4929

" style="stroke:#ff0000;stroke-width:8;stroke-miterlimit:8;
fill:#ff0000;"/>
<!-- Text -->
<text xml:space="preserve" x="9023" y="3921" fill="#000000"  font-family="Times" font-style="normal" font-weight="normal" font-size="252" text-anchor="middle">ISP<tspan font-size="168" dy="36">1</tspan><tspan dy="-36"></tspan></text>
<!-- Text -->
<text xml:space="preserve" x="8740" y="6236" fill="#000000"  font-family="Times" font-style="normal" font-weight="normal" font-size="252" text-anchor="middle">ISP<tspan font-size="168" dy="36">2</tspan><tspan dy="-36"></tspan></text>
<!-- Text -->
<text xml:space="preserve" x="7275" y="5574" fill="#000000"  font-family="Times" font-style="normal" font-weight="normal" font-size="252" text-anchor="middle">ISP<tspan font-size="168" dy="36">3</tspan><tspan dy="-36"></tspan></text>
<!-- Text -->
<text xml:space="preserve" x="6425" y="4204" fill="#000000"  font-family="Times" font-style="normal" font-weight="normal" font-size="252" text-anchor="middle">ISP<tspan font-size="168" dy="36">4</tspan><tspan dy="-36"></tspan></text>
<!-- Text -->
<text xml:space="preserve" x="7086" y="8078" fill="#000000"  font-family="Times" font-style="normal" font-weight="normal" font-size="378" text-anchor="middle">The Multicast Model</text>
<!-- Line -->
<polygon points="8760,2861
8811,2921
9107,2925
9055,2865
8760,2861
" style="stroke:#000000;stroke-width:48;
stroke-linejoin:bevel; stroke-linecap:butt;
fill:#0000b0;
"/>
<!-- Line -->
<polygon points="8285,2841
8314,2879
8474,2871
8502,2828
8285,2841
" style="stroke:#000000;stroke-width:48;
stroke-linejoin:bevel; stroke-linecap:butt;
fill:#0000b0;
"/>
<!-- Line -->
<polygon points="8903,2385
8955,2448
9009,2665
9107,2925
9044,2854
8941,2605
8903,2385
" style="stroke:#000000;stroke-width:48;
stroke-linejoin:bevel; stroke-linecap:butt;
fill:#0000b0;
"/>
<!-- Line -->
<polygon points="8479,3222
8454,3257
8432,3290
8412,3318
8396,3342
8384,3361
8374,3377
8367,3387
8362,3396
8358,3402
8354,3407
8351,3413
8347,3419
8343,3426
8337,3437
8328,3450
8318,3468
8305,3491
8289,3518
8272,3547
8255,3579
8234,3616
8216,3652
8200,3682
8186,3709
8176,3733
8166,3754
8158,3774
8151,3792
8144,3806
8139,3820
8136,3832
8133,3841
8131,3846
8130,3849
8129,3851
8130,3853
8137,3861
8150,3876
8161,3890
8169,3899
8170,3900
8171,3898
8172,3895
8174,3889
8177,3880
8181,3868
8185,3855
8192,3839
8199,3822
8207,3802
8217,3781
8227,3757
8241,3731
8257,3699
8275,3665
8296,3627
8316,3592
8333,3560
8350,3531
8363,3509
8373,3491
8381,3479
8386,3469
8390,3462
8393,3456
8397,3449
8402,3443
8408,3433
8416,3419
8429,3400
8446,3376
8467,3345
8492,3311
8519,3272
8545,3237
8571,3204
8595,3172
8617,3144
8639,3118
8659,3092
8679,3069
8697,3048
8714,3027
8731,3008
8748,2991
8763,2975
8775,2960
8787,2948
8796,2937
8803,2930
8807,2925
8810,2922
8811,2921
8810,2920
8806,2916
8797,2906
8786,2892
8773,2877
8765,2867
8761,2862
8760,2861
8759,2862
8756,2866
8752,2871
8745,2878
8737,2889
8726,2901
8713,2916
8700,2933
8684,2952
8668,2972
8651,2993
8634,3015
8615,3039
8596,3064
8575,3090
8553,3120
8530,3152
8504,3186
8479,3222
" style="stroke:#000000;stroke-width:48;
stroke-linejoin:bevel; stroke-linecap:butt;
fill:#0000b0;
"/>
<!-- Line -->
<polygon points="8301,3162
8321,3121
8341,3082
8359,3047
8376,3017
8392,2990
8407,2964
8422,2942
8435,2921
8448,2902
8460,2885
8471,2870
8481,2856
8489,2846
8495,2837
8499,2832
8501,2829
8502,2828
8501,2828
8498,2828
8489,2829
8474,2830
8452,2831
8425,2833
8393,2835
8363,2836
8335,2838
8313,2839
8299,2840
8289,2841
8286,2841
8285,2841
8286,2840
8290,2838
8296,2834
8305,2829
8317,2820
8330,2811
8347,2801
8365,2788
8384,2774
8405,2761
8427,2745
8450,2729
8475,2711
8502,2691
8533,2669
8565,2646
8599,2621
8633,2596
8665,2572
8695,2550
8722,2529
8746,2510
8769,2492
8790,2476
8810,2460
8828,2446
8846,2432
8860,2419
8874,2409
8885,2400
8893,2393
8899,2389
8902,2386
8903,2385
8903,2387
8904,2392
8904,2400
8907,2411
8908,2426
8910,2441
8913,2460
8916,2480
8920,2502
8925,2527
8932,2554
8940,2584
8951,2618
8962,2651
8973,2683
8984,2711
8995,2738
9004,2761
9014,2782
9023,2802
9032,2819
9040,2835
9046,2848
9050,2857
9054,2862
9055,2865
9054,2865
9050,2865
9042,2865
9027,2865
9005,2865
8977,2864
8943,2864
8908,2864
8871,2862
8837,2862
8809,2861
8787,2861
8772,2861
8764,2861
8761,2861
8760,2861
8759,2862
8756,2866
8752,2871
8745,2878
8737,2889
8726,2901
8713,2916
8700,2933
8684,2952
8668,2972
8651,2993
8634,3015
8615,3039
8596,3064
8575,3090
8553,3120
8530,3152
8504,3186
8479,3222
8454,3257
8432,3290
8412,3318
8396,3342
8384,3361
8374,3377
8367,3387
8362,3396
8358,3402
8354,3407
8351,3413
8347,3419
8343,3426
8337,3437
8328,3450
8318,3468
8305,3491
8289,3518
8272,3547
8255,3579
8234,3616
8216,3652
8200,3682
8186,3709
8176,3733
8166,3754
8158,3774
8151,3792
8144,3806
8139,3820
8136,3832
8133,3841
8131,3846
8130,3849
8129,3851
8128,3849
8127,3846
8125,3839
8122,3829
8120,3817
8117,3802
8116,3784
8115,3764
8115,3740
8117,3712
8122,3678
8130,3638
8140,3591
8150,3556
8159,3523
8167,3492
8176,3466
8183,3444
8190,3426
8194,3412
8198,3401
8201,3392
8204,3382
8208,3374
8212,3364
8217,3353
8223,3338
8230,3319
8241,3296
8253,3269
8267,3236
8283,3200
8301,3162
" style="stroke:#000000;stroke-width:48;
stroke-linejoin:bevel; stroke-linecap:butt;
fill:#0000ff;
"/>
<!-- Line: box -->
<rect x="4183" y="3499" width="958" height="798" rx="0" 
style="stroke:#000000;stroke-width:8;
stroke-linejoin:bevel; stroke-linecap:butt;
fill:#dfdfdf;
"/>
<!-- Line: box -->
<rect x="4462" y="4298" width="400" height="40" rx="0" 
style="stroke:#000000;stroke-width:8;
stroke-linejoin:bevel; stroke-linecap:butt;
fill:#808080;
"/>
<!-- Line: box -->
<rect x="4423" y="4339" width="479" height="39" rx="0" 
style="stroke:#000000;stroke-width:8;
stroke-linejoin:bevel; stroke-linecap:butt;
fill:#808080;
"/>
<!-- Line -->
<polygon points="4223,4379
5102,4379
5222,4578
5222,4618
4103,4618
4103,4578
4223,4379
" style="stroke:#000000;stroke-width:8;
stroke-linejoin:bevel; stroke-linecap:butt;
fill:#dfdfdf;
"/>
<!-- Line -->
<polyline points="4103,4578
4103,4618
5222,4618
5222,4578
" style="stroke:#000000;stroke-width:8;
stroke-linejoin:bevel; stroke-linecap:butt;
fill:#bfbfbf;
"/>
<!-- Line -->
<polygon points="4263,4418
4183,4538
4902,4538
4862,4418
4263,4418
" style="stroke:#000000;stroke-width:0;
stroke-linejoin:bevel; stroke-linecap:butt;
fill:#ffffff;
"/>
<!-- Line -->
<polygon points="5062,4418
4902,4418
4942,4538
5142,4538
5062,4418
" style="stroke:#000000;stroke-width:0;
stroke-linejoin:bevel; stroke-linecap:butt;
fill:#ffffff;
"/>
<!-- Line: box -->
<rect x="4303" y="3577" width="719" height="640" rx="0" 
style="stroke:#000000;stroke-width:0;
stroke-linejoin:miter; stroke-linecap:butt;
fill:#404040;
"/>
<!-- Line: box -->
<rect x="4183" y="4538" width="719" height="14" rx="0" 
style="stroke:#000000;stroke-width:0;
stroke-linejoin:bevel; stroke-linecap:butt;
fill:#808080;
"/>
<!-- Line -->
<polygon points="4248,4418
4183,4538
4303,4538
4320,4498
4291,4498
4308,4458
4282,4458
4303,4418
4248,4418
" style="stroke:#000000;stroke-width:0;
stroke-linejoin:bevel; stroke-linecap:butt;
fill:#bfbfbf;
"/>
<!-- Line -->
<polygon points="4902,4538
4782,4538
4782,4498
4808,4498
4804,4458
4823,4458
4828,4458
4820,4418
4870,4418
4902,4538
" style="stroke:#000000;stroke-width:0;
stroke-linejoin:bevel; stroke-linecap:butt;
fill:#bfbfbf;
"/>
<!-- Line -->
<polygon points="5142,4538
5105,4538
5062,4441
4910,4441
4901,4418
5079,4418
5142,4538
" style="stroke:#000000;stroke-width:0;
stroke-linejoin:bevel; stroke-linecap:butt;
fill:#bfbfbf;
"/>
<!-- Line: box -->
<rect x="4942" y="4538" width="199" height="13" rx="0" 
style="stroke:#000000;stroke-width:0;
stroke-linejoin:bevel; stroke-linecap:butt;
fill:#808080;
"/>
<!-- Line -->
<polygon points="4942,4539
4941,4553
4901,4430
4901,4418
4942,4539
" style="stroke:#000000;stroke-width:0;
stroke-linejoin:bevel; stroke-linecap:butt;
fill:#808080;
"/>
<!-- Line -->
<polygon points="4303,4178
4305,4178
4308,4178
4316,4179
4326,4180
4340,4181
4356,4182
4375,4184
4396,4185
4419,4186
4444,4188
4469,4190
4496,4191
4525,4193
4558,4194
4593,4194
4630,4195
4670,4195
4710,4195
4747,4194
4782,4194
4812,4193
4840,4191
4867,4190
4892,4188
4914,4186
4936,4185
4955,4184
4973,4182
4988,4181
5001,4180
5011,4179
5017,4178
5020,4178
5022,4178
5023,4179
5029,4185
5042,4198
5055,4211
5061,4217
5062,4218
5059,4218
5054,4218
5043,4218
5026,4218
5002,4218
4972,4218
4934,4218
4890,4218
4838,4218
4783,4218
4724,4218
4662,4218
4601,4218
4542,4218
4487,4218
4435,4218
4391,4218
4353,4218
4323,4218
4299,4218
4282,4218
4271,4218
4266,4218
4263,4218
4264,4217
4270,4211
4283,4198
4296,4185
4302,4179
4303,4178
" style="stroke:#000000;stroke-width:0;
stroke-linejoin:bevel; stroke-linecap:butt;
fill:#ffffff;
"/>
<!-- Line -->
<polygon points="5062,4218
5061,4217
5055,4211
5042,4198
5029,4185
5023,4179
5022,4178
5022,4175
5022,4169
5022,4156
5022,4138
5022,4113
5022,4080
5022,4041
5022,3997
5022,3949
5022,3898
5022,3847
5022,3799
5022,3755
5022,3716
5022,3683
5022,3658
5022,3640
5022,3628
5022,3622
5022,3618
5023,3617
5029,3610
5042,3597
5055,3586
5061,3579
5062,3577
5062,3581
5062,3586
5062,3596
5062,3613
5062,3636
5062,3667
5062,3703
5062,3745
5062,3794
5062,3844
5062,3898
5062,3951
5062,4002
5062,4050
5062,4092
5062,4129
5062,4159
5062,4182
5062,4199
5062,4209
5062,4215
5062,4218
" style="stroke:#000000;stroke-width:0;
stroke-linejoin:bevel; stroke-linecap:butt;
fill:#bfbfbf;
"/>
<!-- Line -->
<polygon points="4263,4218
4264,4217
4270,4211
4283,4198
4296,4185
4302,4179
4303,4178
4303,4175
4303,4169
4303,4156
4303,4138
4303,4113
4303,4080
4303,4041
4303,3997
4303,3949
4303,3898
4303,3847
4303,3799
4303,3755
4303,3716
4303,3683
4303,3658
4303,3640
4303,3628
4303,3622
4303,3618
4302,3617
4296,3610
4283,3597
4270,3586
4264,3579
4263,3577
4263,3581
4263,3586
4263,3596
4263,3613
4263,3636
4263,3667
4263,3703
4263,3745
4263,3794
4263,3844
4263,3898
4263,3951
4263,4002
4263,4050
4263,4092
4263,4129
4263,4159
4263,4182
4263,4199
4263,4209
4263,4215
4263,4218
" style="stroke:#000000;stroke-width:0;
stroke-linejoin:bevel; stroke-linecap:butt;
fill:#bfbfbf;
"/>
<!-- Line -->
<polygon points="4303,3618
4305,3618
4308,3618
4316,3617
4326,3616
4340,3615
4356,3614
4375,3612
4396,3611
4419,3610
4444,3608
4469,3607
4496,3606
4525,3604
4558,3603
4593,3603
4630,3602
4670,3602
4710,3602
4747,3603
4782,3603
4812,3604
4840,3606
4867,3607
4892,3608
4914,3610
4936,3611
4955,3612
4973,3614
4988,3615
5001,3616
5011,3617
5017,3618
5020,3618
5022,3618
5023,3617
5029,3610
5042,3597
5055,3586
5061,3579
5062,3577
5059,3577
5054,3577
5043,3577
5026,3577
5002,3577
4972,3577
4934,3577
4890,3577
4838,3577
4783,3577
4724,3577
4662,3577
4601,3577
4542,3577
4487,3577
4435,3577
4391,3577
4353,3577
4323,3577
4299,3577
4282,3577
4271,3577
4266,3577
4263,3577
4264,3579
4270,3586
4283,3598
4296,3610
4302,3617
4303,3618
" style="stroke:#000000;stroke-width:0;
stroke-linejoin:bevel; stroke-linecap:butt;
fill:#808080;
"/>
<!-- Arc -->
<path style="stroke:#454545;stroke-width:8;stroke-linecap:butt;fill:#6d6d6d"
d="M 5223,7450 A 52 52  0  0  0  5320  7450 " />
<!-- Arc -->
<path style="stroke:#454545;stroke-width:8;stroke-linecap:butt;fill:#6d6d6d"
d="M 5103,7441 A 52 52  0  0  0  5201  7441 " />
<!-- Arc -->
<path style="stroke:#454545;stroke-width:8;stroke-linecap:butt;fill:#6d6d6d"
d="M 5000,7433 A 53 53  0  0  0  5099  7433 " />
<!-- Line -->
<polygon points="10724,5496
10724,4814
10171,4814
10169,5496
10724,5496
" style="stroke:#000000;stroke-width:8;
stroke-linejoin:miter; stroke-linecap:butt;
fill:#444444;
"/>
<!-- Line -->
<polygon points="10724,4818
10164,4818
9984,4458
10483,4458
10724,4818
" style="stroke:#000000;stroke-width:8;
stroke-linejoin:miter; stroke-linecap:butt;
fill:#6e6e6e;
"/>
<!-- Line -->
<polygon points="10172,4814
9992,4462
9992,5092
10174,5490
10172,4814
" style="stroke:#000000;stroke-width:8;
stroke-linejoin:round; stroke-linecap:butt;
fill:#ffffff;
"/>
<!-- Line: box -->
<rect x="10224" y="4938" width="449" height="453" rx="0" 
style="stroke:#000000;stroke-width:8;
stroke-linejoin:miter; stroke-linecap:butt;
fill:#3f3f3f;
"/>
<!-- Line -->
<polygon points="4349,6449
4349,7371
5595,7479
5595,6537
4349,6449
" style="stroke:#000000;stroke-width:8;
stroke-linejoin:miter; stroke-linecap:butt;
fill:#ffffff;
"/>
<!-- Ellipse -->
<ellipse transform="translate(10437,5203) rotate(-0.00000000)" rx="223" ry="218"
 style="fill:#000000;stroke:#000000;stroke-width:8;"/>
<!-- Line -->
<polygon points="5722,6822
5939,6733
5722,6724
5722,6822
" style="stroke:#000000;stroke-width:8;
stroke-linejoin:miter; stroke-linecap:butt;
"/>
<!-- Line -->
<polygon points="4409,6517
4409,7282
5527,7381
5527,6606
4409,6517
" style="stroke:#000000;stroke-width:8;
stroke-linejoin:miter; stroke-linecap:butt;
fill:#ffffff;
"/>
<!-- Line -->
<polygon points="5595,6537
5585,7479
5722,7361
5722,6508
5644,6498
5585,6537
5595,6537
" style="stroke:#000000;stroke-width:8;
stroke-linejoin:miter; stroke-linecap:butt;
fill:#c2c2c2;
"/>
<!-- Line -->
<polygon points="5722,7253
5939,7027
5939,6733
5722,6822
5722,7253
" style="stroke:#000000;stroke-width:8;
stroke-linejoin:miter; stroke-linecap:butt;
fill:#8d8d8d;
"/>
<!-- Circle -->
<circle cx="10546" cy="5282" r="337"
 style="fill:#8d8e8d;stroke:#000000;stroke-width:8;"/>
<!-- Line -->
<polygon points="4354,3681
4411,3681
4509,3803
4379,3967
4354,3967
4468,3820
4354,3681
" style="stroke:#ffffff;stroke-width:8;
stroke-linejoin:miter; stroke-linecap:butt;
fill:#ffffff;
"/>
<!-- Line -->
<polygon points="4647,3967
4591,3967
4492,3844
4623,3681
4647,3681
4533,3828
4647,3967
" style="stroke:#ffffff;stroke-width:8;
stroke-linejoin:miter; stroke-linecap:butt;
fill:#ffffff;
"/>
<!-- Circle -->
<circle cx="5480" cy="7425" r="32"
 style="fill:#000000;stroke:#000000;stroke-width:8;"/>
<!-- Circle -->
<circle cx="5386" cy="7415" r="32"
 style="fill:#000000;stroke:#000000;stroke-width:8;"/>
<!-- Line -->
<polygon points="4349,6449
4468,6410
5644,6498
5595,6537
4349,6449
" style="stroke:#000000;stroke-width:8;
stroke-linejoin:miter; stroke-linecap:butt;
"/>
<!-- Line -->
<polygon points="4468,6567
4468,7244
5458,7332
5458,6655
4468,6567
" style="stroke:#000000;stroke-width:8;
stroke-linejoin:miter; stroke-linecap:butt;
fill:#87cfff;
"/>
<!-- Circle -->
<circle cx="10548" cy="5282" r="237"
 style="fill:#ffffff;stroke:#000000;stroke-width:8;"/>
</g>
</svg>
